PathFileType	3	(X/Y/Z)	walking_1__view2_aligned.trc
DataRate	CameraRate	NumFrames	NumMarkers	Units	OrigDataRate	OrigDataStartFrame	OrigNumFrames
100.0	100.0	10	19	mm	100.0	2290	6105
Frame#	Time	pelvis			neck			head			hip_left			hip_right			knee_left			knee_right			ankle_left			ankle_right			heel_left			heel_right			toe_left			toe_right			shoulder_left			shoulder_right			elbow_left			elbow_right			wrist_left			wrist_right			
		X1	Y1	Z1	X2	Y2	Z2	X3	Y3	Z3	X4	Y4	Z4	X5	Y5	Z5	X6	Y6	Z6	X7	Y7	Z7	X8	Y8	Z8	X9	Y9	Z9	X10	Y10	Z10	X11	Y11	Z11	X12	Y12	Z12	X13	Y13	Z13	X14	Y14	Z14	X15	Y15	Z15	X16	Y16	Z16	X17	Y17	Z17	X18	Y18	Z18	X19	Y19	Z19	
2290	22.89000	-55.247941	936.385037	186.788038	-45.276743	1500.952842	236.093228	-32.998742	1602.941411	381.438283	20.545665	935.541892	183.759153	-131.041373	937.228209	189.816942	51.187804	527.747790	358.046813	-187.634664	499.162138	173.081267	64.611635	102.277955	401.944015	-206.659318	186.635170	-94.656717	62.704318	44.110918	379.606428	-205.030828	162.772761	-146.630218	50.535575	90.368720	606.252940	-230.194145	62.621256	28.620612	121.293058	1442.022461	157.037053	-229.363776	1437.861182	242.733929	199.568822	1149.138332	106.880607	-296.189804	1145.954691	316.827318	285.633288	887.084275	138.158264	-286.721154	940.693708	509.864309
2291	22.90000	-53.471167	936.060267	186.694939	-43.171149	1500.500608	235.973767	-31.331037	1602.356728	381.280548	22.417191	935.298662	183.471292	-129.359376	936.821894	189.918601	52.537407	526.553568	354.931139	-185.653936	499.847269	177.817642	65.012785	100.883520	399.283954	-205.437875	190.303751	-95.686669	62.863929	42.721279	377.015435	-203.972090	167.518848	-148.259593	51.506516	88.783399	603.341798	-227.679869	62.867704	24.682895	123.280576	1441.353094	157.534317	-226.905212	1437.691311	241.772622	201.030157	1148.178094	107.780160	-293.744282	1145.594608	314.364450	287.044644	885.263685	138.018881	-286.758401	938.376570	504.974559
2292	22.91000	-51.694393	935.735496	186.601840	-41.065555	1500.048373	235.854306	-29.663331	1601.772045	381.122812	24.288716	935.055431	183.183431	-127.677378	936.415579	190.020261	53.887010	525.359347	351.815464	-183.673209	500.532401	182.554017	65.413935	99.489085	396.623892	-204.216431	193.972332	-96.716622	63.023540	41.331640	374.424442	-202.913353	172.264935	-149.888968	52.477457	87.198077	600.430657	-225.165593	63.114152	20.745178	125.268094	1440.683726	158.031582	-224.446648	1437.521440	240.811316	202.491491	1147.217856	108.679713	-291.298759	1145.234525	311.901582	288.456000	883.443095	137.879497	-286.795648	936.059433	500.084809
2293	22.92000	-49.917619	935.410725	186.508740	-38.959961	1499.596138	235.734844	-27.995625	1601.187362	380.965076	26.160242	934.812201	182.895570	-125.995380	936.009264	190.121921	55.236613	524.165126	348.699790	-181.692481	501.217533	187.290392	65.815085	98.094650	393.963830	-202.994988	197.640913	-97.746574	63.183151	39.942001	371.833449	-201.854616	177.011023	-151.518343	53.448398	85.612755	597.519515	-222.651317	63.360600	16.807460	127.255612	1440.014358	158.528846	-221.988084	1437.351569	239.850009	203.952826	1146.257618	109.579266	-288.853237	1144.874442	309.438713	289.867356	881.622505	137.740114	-286.832895	933.742295	495.195059
2294	22.93000	-48.140845	935.085955	186.415641	-36.854367	1499.143904	235.615383	-26.327919	1600.602679	380.807341	28.031768	934.568971	182.607709	-124.313383	935.602950	190.223580	56.586216	522.970904	345.584116	-179.711754	501.902664	192.026766	66.216235	96.700215	391.303769	-201.773544	201.309493	-98.776526	63.342763	38.552363	369.242456	-200.795879	181.757110	-153.147717	54.419339	84.027434	594.608373	-220.137041	63.607048	12.869743	129.243131	1439.344990	159.026111	-219.529520	1437.181698	238.888702	205.414161	1145.297380	110.478819	-286.407714	1144.514359	306.975845	291.278712	879.801915	137.600730	-286.870141	931.425158	490.305309
2295	22.94000	-46.364071	934.761184	186.322541	-34.748773	1498.691669	235.495922	-24.660214	1600.017996	380.649605	29.903293	934.325741	182.319847	-122.631385	935.196635	190.325240	57.935819	521.776683	342.468442	-177.731026	502.587796	196.763141	66.617385	95.305780	388.643707	-200.552101	204.978074	-99.806479	63.502374	37.162724	366.651463	-199.737141	186.503197	-154.777092	55.390280	82.442112	591.697231	-217.622765	63.853495	8.932026	131.230649	1438.675623	159.523375	-217.070957	1437.011827	237.927396	206.875496	1144.337141	111.378372	-283.962192	1144.154276	304.512977	292.690069	877.981325	137.461347	-286.907388	929.108020	485.415559
2296	22.95000	-44.587297	934.436413	186.229442	-32.643179	1498.239434	235.376461	-22.992508	1599.433312	380.491870	31.774819	934.082511	182.031986	-120.949388	934.790320	190.426900	59.285422	520.582461	339.352767	-175.750299	503.272928	201.499516	67.018535	93.911344	385.983646	-199.330657	208.646655	-100.836431	63.661985	35.773085	364.060470	-198.678404	191.249285	-156.406467	56.361221	80.856791	588.786090	-215.108489	64.099943	4.994309	133.218167	1438.006255	160.020639	-214.612393	1436.841956	236.966089	208.336831	1143.376903	112.277925	-281.516670	1143.794193	302.050109	294.101425	876.160735	137.321963	-286.944635	926.790882	480.525809
2297	22.96000	-42.810523	934.111643	186.136342	-30.537585	1497.787199	235.257000	-21.324802	1598.848629	380.334134	33.646345	933.839281	181.744125	-119.267390	934.384005	190.528560	60.635025	519.388240	336.237093	-173.769571	503.958059	206.235891	67.419685	92.516909	383.323584	-198.109214	212.315236	-101.866383	63.821596	34.383446	361.469477	-197.619667	195.995372	-158.035842	57.332162	79.271469	585.874948	-212.594212	64.346391	1.056592	135.205686	1437.336887	160.517904	-212.153829	1436.672086	236.004782	209.798166	1142.416665	113.177478	-279.071147	1143.434110	299.587240	295.512781	874.340145	137.182580	-286.981882	924.473745	475.636059
2298	22.97000	-40.732393	934.241022	186.175379	-29.271605	1497.955467	235.042654	-20.758050	1598.624871	380.021538	35.846931	934.171195	181.644870	-117.311742	934.310851	190.705886	62.354967	518.699194	332.142609	-171.006455	505.394644	213.138607	68.110037	92.376443	375.012666	-195.524637	214.033434	-95.341055	64.304965	34.587772	352.682797	-195.134283	198.054442	-151.649734	58.701944	77.193975	576.886435	-208.646974	64.642250	6.605788	136.739184	1437.992841	161.409913	-210.470216	1436.954821	234.578806	212.079717	1143.584068	114.810472	-277.109654	1143.811071	295.105489	297.569860	875.498008	139.636726	-286.269210	923.069527	467.674925
2299	22.98000	-38.654263	934.370401	186.214415	-28.005624	1498.123735	234.828309	-20.191298	1598.401113	379.708942	38.047518	934.503109	181.545614	-115.356093	934.237697	190.883212	64.074909	518.010149	328.048125	-168.243338	506.831228	220.041324	68.800388	92.235977	366.701748	-192.940060	215.751632	-88.815726	64.788334	34.792098	343.896118	-192.648899	200.113511	-145.263625	60.071726	75.116481	567.897922	-204.699736	64.938108	12.154985	138.272682	1438.648794	162.301921	-208.786603	1437.237556	233.152829	214.361267	1144.751471	116.443466	-275.148160	1144.188033	290.623738	299.626939	876.655870	142.090872	-285.556539	921.665309	459.713791
